<?xml version="1.0" encoding="UTF-8" standalone="no"?><!DOCTYPE svg PUBLIC "-//W3C//DTD SVG 1.1//EN" "http://www.w3.org/Graphics/SVG/1.1/DTD/svg11.dtd"><svg width="100%" height="100%" viewBox="0 0 24 24" version="1.1" xmlns="http://www.w3.org/2000/svg" xmlns:xlink="http://www.w3.org/1999/xlink" xml:space="preserve" xmlns:serif="http://www.serif.com/" style="fill-rule:evenodd;clip-rule:evenodd;"><path d="M11.158,1.5l-0.803,2.234l0.012,0.13l0.39,1.94l-2.26,0.934l-1.095,-1.646l-0.084,-0.098l-2.148,-1.014l-1.19,1.19l1.014,2.148l0.098,0.084l1.646,1.096l-0.935,2.258l-1.94,-0.39l-0.13,-0.01l-2.233,0.802l0,1.684l2.234,0.803l0.13,-0.012l1.94,-0.39l0.934,2.26l-1.646,1.095l-0.098,0.084l-1.014,2.148l1.19,1.19l2.148,-1.014l0.084,-0.098l1.096,-1.646l2.258,0.935l-0.39,1.94l-0.01,0.13l0.802,2.233l1.684,0l0.803,-2.234l-0.012,-0.13l-0.39,-1.94l2.26,-0.934l1.095,1.646l0.084,0.098l2.148,1.014l1.19,-1.19l-1.014,-2.148l-0.098,-0.084l-1.646,-1.096l0.935,-2.258l1.94,0.39l0.13,0.01l2.233,-0.802l0,-1.684l-2.234,-0.803l-0.13,0.012l-1.94,0.39l-0.934,-2.26l1.646,-1.095l0.098,-0.084l1.014,-2.148l-1.19,-1.19l-2.148,1.014l-0.084,0.098l-1.096,1.646l-2.258,-0.935l0.39,-1.94l0.01,-0.13l-0.802,-2.233l-1.684,0Zm0.842,8c1.371,0 2.5,1.129 2.5,2.5c0,1.371 -1.129,2.5 -2.5,2.5c-1.371,0 -2.5,-1.129 -2.5,-2.5c0,-1.371 1.129,-2.5 2.5,-2.5Z" style="fill:#98b5d8;fill-rule:nonzero;stroke:#457abe;stroke-width:1px;"/><g id="Calque1"><path d="M22.556,15.61l-0.739,5.183l-2.968,-0.168" style="fill:none;"/><path d="M12.142,11.902l0.15,-0.002c0,0 0.952,0.46 0.952,0.46c0.02,0.01 0.04,0.018 0.061,0.025l0.86,0.297c0.081,0.028 0.167,0.037 0.251,0.027l1.018,-0.122c0.215,-0.026 0.397,-0.172 0.467,-0.378c0.07,-0.205 0.016,-0.432 -0.139,-0.584l-1.137,-1.117l0.036,0.015c0.088,0.036 0.184,0.049 0.279,0.039l1.654,-0.189c0.178,-0.02 0.335,-0.124 0.425,-0.279c0.089,-0.155 0.1,-0.343 0.028,-0.507l-0.797,-1.829l-0.002,-0.004l-0.516,-1.156c-0.029,-0.065 -0.07,-0.124 -0.121,-0.173l-1.223,-1.197l-0.17,-0.246l0.781,-0.118l1.527,0.294l2.328,0.756c0.161,0.052 0.338,0.029 0.48,-0.063c0.143,-0.092 0.236,-0.243 0.254,-0.412l0.137,-1.249c0.013,-0.124 -0.015,-0.249 -0.08,-0.356l-1.083,-1.761c0.609,0.14 1.202,0.383 1.754,0.737c2.737,1.749 3.441,5.514 1.598,8.398c-1.843,2.883 -5.556,3.825 -8.293,2.076c-0.589,-0.376 -1.084,-0.847 -1.479,-1.382Z" style="fill:#ff8100;"/><path d="M20.896,5.104c1.034,1.537 1.064,3.685 -0.047,5.423c-0.903,1.414 -2.371,2.257 -3.871,2.364c0.046,-0.087 0.086,-0.178 0.119,-0.273c0.121,-0.355 0.127,-0.731 0.031,-1.079c0.412,-0.142 0.763,-0.429 0.985,-0.814c0.29,-0.502 0.324,-1.111 0.092,-1.642l-0.797,-1.83c-0.002,-0.004 -0.004,-0.009 -0.006,-0.014l-0.245,-0.547l1.307,0.424c0.523,0.17 1.094,0.095 1.556,-0.204c0.462,-0.298 0.765,-0.789 0.824,-1.336l0.052,-0.472Z" style="fill:#ffc300;"/></g></svg>